<?xml version="1.0" encoding="utf-8"?>
<!-- Generator: Adobe Illustrator 25.2.0, SVG Export Plug-In . SVG Version: 6.00 Build 0)  -->
<svg version="1.1" id="Layer_1" xmlns="http://www.w3.org/2000/svg" xmlns:xlink="http://www.w3.org/1999/xlink" x="0px" y="0px"
	 viewBox="0 0 929.93 244.75" style="enable-background:new 0 0 929.93 244.75;" xml:space="preserve">
<style type="text/css">
	.st0{fill:#FFFFFF;}
	.st1{fill:#1C1C1C;stroke:#75FF94;stroke-width:4.9566;stroke-miterlimit:10;}
	.st2{fill:#1C1C1C;}
	.st3{fill:none;stroke:#75FF94;stroke-width:4.9566;stroke-miterlimit:10;}
</style>
<g>
	<g>
		<path class="st0" d="M209.04,104.74c-3.53,8.32-8.35,15.98-14.2,22.72c22.77,2.84,40.46,22.32,40.46,45.85
			c0,25.49-20.73,46.22-46.21,46.22c-15,0-28.36-7.19-36.8-18.29c-2.63-3.44-4.78-7.26-6.36-11.36c-1.7-4.42-2.75-9.16-3-14.11
			h14.01h0.13h36.26l-18.13-31.4l-0.08-0.14l-6.99-12.11l-0.07-0.12c4.04-2.52,7.82-5.45,11.26-8.71
			c6.36-6.02,11.62-13.19,15.44-21.18c2.07-4.34,3.72-8.92,4.88-13.69c1.35-5.45,2.05-11.14,2.05-17C201.68,32.05,169.64,0,130.26,0
			C90.87,0,58.83,32.05,58.83,71.43c0,5.86,0.71,11.55,2.05,17c3.46-0.43,6.98-0.65,10.55-0.65c5.54,0,10.96,0.53,16.21,1.54
			c-2.32-5.5-3.6-11.55-3.6-17.89c0-25.48,20.73-46.21,46.22-46.21c25.48,0,46.22,20.73,46.22,46.21c0,6.34-1.28,12.39-3.6,17.89
			c-1.71,4.05-3.98,7.82-6.72,11.18c-3.04,3.75-6.66,7.02-10.71,9.66l-6.99-12.11l-0.08-0.13l-18.13-31.4l-18.13,31.4l-0.08,0.13
			l-6.99,12.11l-0.08,0.12c-4.16-2.23-8.56-4.05-13.16-5.42c-6.47-1.95-13.32-2.98-20.4-2.98c-1.91,0-3.8,0.08-5.67,0.23
			c-4.92,0.39-9.7,1.28-14.29,2.62C21.77,113.39,0,140.86,0,173.32c0,39.39,32.05,71.43,71.43,71.43c19.15,0,36.58-7.58,49.42-19.9
			c-5.37-7.08-9.66-15.04-12.62-23.6c-8.44,11.11-21.79,18.29-36.8,18.29c-25.48,0-46.22-20.73-46.22-46.22
			c0-23.53,17.69-43.01,40.46-45.85c1.88-0.24,3.81-0.36,5.76-0.36c2.46,0,4.88,0.2,7.23,0.57c4.87,0.76,9.48,2.3,13.72,4.45
			l-6.99,12.11l-0.08,0.14l-18.13,31.4h36.26h0.13h14.01h0.11c0.16,4.84,0.81,9.56,1.9,14.11c2.06,8.68,5.72,16.76,10.66,23.9
			c2.75,4,5.91,7.71,9.41,11.06c12.83,12.32,30.26,19.9,49.42,19.9c39.38,0,71.43-32.04,71.43-71.43
			C260.51,140.86,238.74,113.39,209.04,104.74z"/>
	</g>
	<g>
		<path class="st0" d="M417.06,190.43l-27.14-46.76h-24.94v46.76H343.9V62.07h51.34c11.55,0,21.27,4.03,29.15,12.1
			c8.07,7.88,12.1,17.6,12.1,29.15c0,16.32-10.27,31.17-25.49,37.22l29.15,49.88H417.06z M364.99,81.87v42.91h30.25
			c11.19,0,20.17-9.54,20.17-21.45s-8.98-21.45-20.17-21.45H364.99z"/>
		<path class="st0" d="M521.34,98.74h19.8v91.68h-19.8v-11.74c-6.05,9.35-15.4,14.12-28.42,14.12c-21.09,0-35.21-14.3-35.21-37.77
			V98.74h19.8v54.28c0,13.75,7.88,21.27,20.54,21.27c13.94,0,23.29-8.62,23.29-26.41V98.74z"/>
		<path class="st0" d="M568.7,190.43V56.57h19.8v133.86H568.7z"/>
		<path class="st0" d="M631.79,153.02c2.93,13.94,14.12,21.64,29.34,21.64c10.45,0,18.34-3.85,23.65-11.37l16.32,9.54
			c-8.99,13.39-22.37,19.99-40.16,19.99c-14.85,0-26.95-4.58-36.12-13.57c-9.17-9.17-13.75-20.72-13.75-34.66
			c0-13.75,4.58-25.12,13.57-34.29c8.98-9.35,20.72-13.94,34.84-13.94c13.39,0,24.39,4.77,33.01,14.12
			c8.62,9.35,13.02,20.9,13.02,34.29c0,2.02-0.18,4.77-0.73,8.25H631.79z M685.52,136.89c-2.75-14.85-13.2-22.55-26.22-22.55
			c-14.67,0-24.94,8.62-27.69,22.55H685.52z"/>
		<path class="st0" d="M800.12,98.74h19.8v91.68h-19.8v-13.2c-7.52,10.45-18.15,15.59-32.09,15.59c-12.65,0-23.29-4.58-32.27-13.94
			c-8.98-9.35-13.39-20.9-13.39-34.29c0-13.57,4.4-24.94,13.39-34.29c8.98-9.35,19.62-13.94,32.27-13.94
			c13.94,0,24.57,5.13,32.09,15.4V98.74z M771.15,173.92c8.25,0,15.22-2.75,20.72-8.25c5.5-5.68,8.25-12.65,8.25-21.09
			c0-8.43-2.75-15.4-8.25-20.9c-5.5-5.68-12.47-8.43-20.72-8.43c-8.25,0-15.22,2.75-20.72,8.43c-5.5,5.5-8.25,12.47-8.25,20.9
			c0,8.43,2.75,15.4,8.25,21.09C755.93,171.17,762.9,173.92,771.15,173.92z"/>
		<path class="st0" d="M910.13,98.74h19.8v91.68h-19.8v-11.74c-6.05,9.35-15.4,14.12-28.42,14.12c-21.09,0-35.21-14.3-35.21-37.77
			V98.74h19.8v54.28c0,13.75,7.88,21.27,20.54,21.27c13.94,0,23.29-8.62,23.29-26.41V98.74z"/>
	</g>
</g>
</svg>
